# xmcd
#
# Track frame offsets:
#	150
#	13950
#	28604
#	43242
#	58171
#	73144
#	87558
#	103122
#	117625
#	131404
#	146045
#	161041
#	175981
#	190912
#	205707
#	220461
#	235567
#	250933
#	265717
#	280379
#
# Disc length: 3932 seconds
#
# Revision: 0
# Processed by: cddbd v1.5.2PL0 Copyright (c) Steve Scherf et al.
# Submitted via: EasyCDDAExtractor 16.0.6.1
#
DISCID=3b0f5a14
DTITLE=Συλλογικός δίσκος - Τα ρεμπέτικα Β 1922-1937 12 Α
DYEAR=2010
DGENRE=Ρεμπέτικη
TTITLE0=Περπινιάδης Στελλάκης - Ηρωΐνη και μαυράκι [ζεϊμπ., Σωτ. Γαβαλάς, Αθήν
TTITLE0=α 1936]
TTITLE1=Δελλιάς Ανέστης - Το χαρέμι στο χαμάμ [τσιφτ., Αν. Δελλιάς, Αθήνα 1936
TTITLE1=]
TTITLE2=Αμπατζή Ρίτα - Στα ξένα μ' άφησες [ζεϊμπ. απτάλ., Κ. Σκαρβέλης, Αθήνα 
TTITLE2=1936]
TTITLE3=Βαμβακάρης Μάρκος - Μάννα με μαχαιρώσανε [ζεϊμπ.απτάλ., Μ. Βαμβακάρης,
TTITLE3=Αθ 1.1937]
TTITLE4=Περπινιάδης Στελλάκης - Τσακωτό τον έπιασε [ζεϊμπ. καμηλ., Εμμ. Χρυσαφ
TTITLE4=άκης, Αθ 1936]
TTITLE5=Ρούκουνας Κώστας ή Σαμιωτάκης - Η Μαρίκα η δασκάλα [χασάπ., Παν. Τούντ
TTITLE5=ας, Αθήνα 1936 ή 37]
TTITLE6=Εσκενάζυ Ρόζα - Ταβερνιάρισσα [ζεϊμπ., Κ. Μακρής, Αθήνα 1936]
TTITLE7=Δελλιάς Ανέστης-Παγιουμτζής Στράτος - Τον άντρα σου και μένα [ζεϊμπ., 
TTITLE7=Αν. Δελλιάς, Αθήνα 1937]
TTITLE8=Μηττάκη Γεωργία - Δεν σε θέλω [καρσιλ., Σ. Περιστέρης-Ζ. Κασιμάτης, Αθ
TTITLE8=1935]
TTITLE9=Περπινιάδης Στελλάκης - Το Βενιζέλο χάσαμε [συρτός, Στ. Παντελίδης-Κ. 
TTITLE9=Καρίπης, Αθ 1936]
TTITLE10=Άνευ ερμηνευτού - Συρτό πολίτικο [διασκ. Κ. Σκαρβέλη, Αθήνα 1935]
TTITLE11=Εσκενάζυ Ρόζα - Μην ορκίζεσαι βρε ψεύτρα [τσιφτ.Δ.Σέμσης-Γ.Πετροπουλέ
TTITLE11=ας, Αθ1936]
TTITLE12=Κάβουρας Γιώργος - Κακούργα μάννα [ζεϊμπ., Κ. Σκαρβέλης, Αθήνα 1936]
TTITLE13=Εσκενάζυ Ρόζα - Πες μου φως μου από πού 'σαι[κιοτσ.Κ.Καρίπης-Γ.Πετροπ
TTITLE13=ουλέας,Αθ1936]
TTITLE14=Παγιουμτζής Στράτος - Ουσάκ μανές, Το τραγούδι της ξενητειάς [Σ. Παγι
TTITLE14=ουμτζής, Αθ 5.1937]
TTITLE15=Περπινιάδης Στελλάκης - Σε μιά ξανθούλα [χασάπ., Στ. Περπινιάδης, Αθή
TTITLE15=να 1937]
TTITLE16=Αμπατζή Ρίτα - Έτσι σε θέλω [ζεϊμπ. απτάλ., (Λάζ. Ρούβας-)Γ. Πετροπου
TTITLE16=λέας, Αθ1936]
TTITLE17=Ρούκουνας Κώστας ή Σαμιωτάκης - Σωρόπης [ζεϊμπ., Σ. Περιστέρης-Γ. Καμ
TTITLE17=βύσης, Αθήνα 1936]
TTITLE18=Εσκενάζυ Ρόζα - Κατινούλα [Αϊδίν. καρσιλ., Παν. Τούντας-Σίμων Καρακάσ
TTITLE18=ης, Αθ1936]
TTITLE19=Παγιουμτζής Στράτος - Μάγκες πιάστε τα βουνά [ζεϊμπ., Σ. Παγιουμτζής,
TTITLE19=Αθήνα 1936]
EXTD=
EXTT0=
EXTT1=
EXTT2=
EXTT3=
EXTT4=
EXTT5=
EXTT6=
EXTT7=
EXTT8=
EXTT9=
EXTT10=
EXTT11=
EXTT12=
EXTT13=
EXTT14=
EXTT15=
EXTT16=
EXTT17=
EXTT18=
EXTT19=
PLAYORDER=
